<svg xmlns="http://www.w3.org/2000/svg" viewBox="0 0 512 512">
  <defs>
    <radialGradient id="bg" cx="50%" cy="42%" r="72%">
      <stop offset="0" stop-color="#102d3b"/>
      <stop offset="0.55" stop-color="#07111e"/>
      <stop offset="1" stop-color="#03050b"/>
    </radialGradient>
    <linearGradient id="ink" x1="0" y1="1" x2="1" y2="0">
      <stop stop-color="#4cc6df"/>
      <stop offset="1" stop-color="#b6f6ff"/>
    </linearGradient>
    <filter id="glow" x="-60%" y="-60%" width="220%" height="220%">
      <feGaussianBlur stdDeviation="8" result="blur"/>
      <feMerge><feMergeNode in="blur"/><feMergeNode in="SourceGraphic"/></feMerge>
    </filter>
  </defs>
  <rect width="512" height="512" fill="url(#bg)"/>
  <circle cx="256" cy="256" r="174" fill="none" stroke="#68d8ec" stroke-opacity=".12" stroke-width="2"/>
  <circle cx="256" cy="256" r="142" fill="none" stroke="#68d8ec" stroke-opacity=".09" stroke-dasharray="4 13" stroke-width="2"/>
  <path d="M151 391c62-69 109-133 141-193" fill="none" stroke="#73dfee" stroke-linecap="round" stroke-width="11" filter="url(#glow)"/>
  <path d="M174 363c6-79 39-175 157-253 18 81-3 168-86 222-25 16-49 27-71 31Z" fill="#0a1c27" stroke="url(#ink)" stroke-linejoin="round" stroke-width="7" filter="url(#glow)"/>
  <path d="M191 337c43-51 82-100 119-160M220 299l-35-3M247 261l-37-12M272 223l-34-18M241 271l43 7M263 235l42-1M286 198l35-8" fill="none" stroke="#83e5f1" stroke-linecap="round" stroke-opacity=".72" stroke-width="5"/>
  <path d="m365 134 7 20 20 7-20 7-7 20-7-20-20-7 20-7 7-20Z" fill="#b9f7ff" filter="url(#glow)"/>
  <circle cx="150" cy="392" r="7" fill="#89e7f3" filter="url(#glow)"/>
</svg>
